<svg width="30" height="28" viewBox="0 0 30 28" fill="none" xmlns="http://www.w3.org/2000/svg">
<g opacity="0.5">
<path d="M22.4077 25.7647L17.9077 21.2647L22.4077 16.7647L27.4077 20.7647C31.9077 24.7647 26.4077 29.7647 22.4077 25.7647Z" fill="#191816"/>
<path d="M21.9077 11.2647C21.9077 17.0637 17.2067 21.7647 11.4077 21.7647C5.60873 21.7647 0.907715 17.0637 0.907715 11.2647C0.907715 5.46572 5.60873 0.764709 11.4077 0.764709C17.2067 0.764709 21.9077 5.46572 21.9077 11.2647ZM4.77055 11.2647C4.77055 14.9303 7.74211 17.9019 11.4077 17.9019C15.0733 17.9019 18.0449 14.9303 18.0449 11.2647C18.0449 7.5991 15.0733 4.62754 11.4077 4.62754C7.74211 4.62754 4.77055 7.5991 4.77055 11.2647Z" fill="#191816"/>
</g>
</svg>
